<svg xmlns="http://www.w3.org/2000/svg" viewBox="0 0 120 120">
  <defs>
    <linearGradient id="g" x1="0" y1="0" x2="1" y2="1">
      <stop offset="0" stop-color="#2D3436"/><stop offset="1" stop-color="#2D3436"/>
    </linearGradient>
    <radialGradient id="hl" cx="0.32" cy="0.26" r="0.6">
      <stop offset="0" stop-color="#FFFFFF" stop-opacity="0.22"/><stop offset="1" stop-color="#FFFFFF" stop-opacity="0"/>
    </radialGradient>
    <clipPath id="l"><rect x="0" y="0" width="60" height="120"/></clipPath>
    <clipPath id="r"><rect x="60" y="0" width="60" height="120"/></clipPath>
  </defs>
  <!-- konteyner -->
  <rect width="120" height="120" rx="27" fill="url(#g)"/>
  <rect width="120" height="120" rx="27" fill="url(#hl)"/>
  <rect x="4" y="4" width="112" height="112" rx="23" fill="none" stroke="rgba(255,255,255,0.10)" stroke-width="2"/>

  <!-- laurel -->
  <g fill="#94A3B8">
    <path d="M12 97c2.6-3.2 6.2-4.4 8.4-7.4 1 1.6 2.2 2.9 3.6 3.6-2.6 3-6.2 4.2-8.4 7.2-1.4-1-2.6-2.2-3.6-3.4Z"/>
    <path d="M96 97c2.6-3.2 6.2-4.4 8.4-7.4 1 1.6 2.2 2.9 3.6 3.6-2.6 3-6.2 4.2-8.4 7.2-1.4-1-2.6-2.2-3.6-3.4Z"/>
  </g>

  <!-- bosh: chap = suyak, o'ng = anatomiya -->
  <g>
    <g clip-path="url(#l)">
      <circle cx="60" cy="56" r="37" fill="#FFFFFF"/>
      <rect x="33" y="86" width="54" height="18" rx="9" fill="#FFFFFF"/>
      <circle cx="43" cy="56" r="9" fill="#0B0F1A"/>
      <path d="M43 60q1.6 3 4 4.4" stroke="#0B0F1A" stroke-width="2.4" fill="none" stroke-linecap="round" opacity=".55"/>
      <path d="M60 70 52.5 86h15Z" fill="#0B0F1A"/>
      <g fill="#0B0F1A">
        <rect x="40.5" y="91" width="4" height="9" rx="1.6"/>
        <rect x="47.5" y="91" width="4" height="9" rx="1.6"/>
        <rect x="54.5" y="91" width="4" height="9" rx="1.6"/>
      </g>
    </g>
    <g clip-path="url(#r)">
      <circle cx="60" cy="56" r="37" fill="#94A3B8"/>
      <rect x="33" y="86" width="54" height="18" rx="9" fill="#94A3B8"/>
      <circle cx="96.5" cy="58" r="5.5" fill="#94A3B8" stroke="#0B0F1A" stroke-width="2.4" opacity=".6"/>
      <circle cx="77" cy="56" r="9" fill="#0B0F1A" opacity=".5"/>
      <path d="M60 70v16" stroke="#0B0F1A" stroke-width="4.5" opacity=".4" stroke-linecap="round"/>
      <g stroke="#0B0F1A" stroke-width="2.2" fill="none" stroke-linecap="round" opacity=".4">
        <path d="M71 38q3 2 4 5"/><path d="M74 32q2.4 2 3 4.6"/>
      </g>
    </g>
    <line x1="60" y1="14" x2="60" y2="112" stroke="#0B0F1A" stroke-width="4" opacity=".45"/>
  </g>
</svg>
